<?xml version="1.0" encoding="UTF-8"?>
<svg version="1.1" xmlns="http://www.w3.org/2000/svg" width="800" height="800">
<path d="M0 0 C1.10867432 0.6381665 2.21734863 1.27633301 3.35961914 1.93383789 C6.58265439 3.79419022 9.79297081 5.67472244 13 7.5625 C14.49850734 8.43782634 15.99717881 9.31287182 17.49609375 10.1875 C20.15882735 11.74658562 22.81508347 13.31616459 25.46875 14.890625 C31.09867855 18.22251908 36.7691917 21.48397673 42.4375 24.75 C44.09833618 25.70700806 44.09833618 25.70700806 45.79272461 26.68334961 C48.06337068 27.99139477 50.33412358 29.29925448 52.60498047 30.60693359 C58.07169984 33.75582056 63.53572129 36.90938036 69 40.0625 C71.16926817 41.3138067 73.338539 42.56510878 75.5078125 43.81640625 C79.81601651 46.30180902 84.12322789 48.78891977 88.4296875 51.27734375 C104.2585974 60.42141513 120.12261518 69.50299951 136 78.5625 C138.35942447 79.9087675 140.71879566 81.25512829 143.078125 82.6015625 C143.66163223 82.93449814 144.24513947 83.26743378 144.84632874 83.61045837 C148.914545 85.93227482 152.97898213 88.26062922 157.04296875 90.58984375 C161.19256755 92.96615991 165.35064697 95.32512077 169.52349854 97.6603241 C171.33875858 98.67766284 173.15105188 99.70008415 174.96240234 100.72436523 C177.21648505 101.99773035 179.47566277 103.26213422 181.74072266 104.51586914 C188.16949326 108.16613798 193.55648413 111.23195239 196 118.5625 C196.09218332 119.91560987 196.13084287 121.27278239 196.13422108 122.62902451 C196.13867892 123.45972891 196.14313676 124.29043331 196.14772969 125.14631057 C196.14745315 126.51510907 196.14745315 126.51510907 196.14717102 127.91156006 C196.15084771 128.88106983 196.1545244 129.85057961 196.1583125 130.84946847 C196.16936544 134.11286709 196.1731959 137.37623389 196.17700195 140.63964844 C196.18326534 142.97353212 196.18991203 145.3074148 196.19691467 147.64129639 C196.21433489 153.99262239 196.22487904 160.34394086 196.2331202 166.69528484 C196.23826776 170.66148446 196.24434358 174.62768174 196.25063133 178.5938797 C196.26750149 189.57599979 196.28213672 200.5581178 196.28938007 211.54024887 C196.29128995 214.38978832 196.29321028 217.23932777 196.29516602 220.08886719 C196.29564976 220.79710083 196.2961335 221.50533446 196.2966319 222.23502973 C196.30493242 233.70824443 196.33027016 245.18135488 196.36274669 256.65452406 C196.39582123 268.43503421 196.41382917 280.21549138 196.41702431 291.99604821 C196.41937761 298.6099203 196.42837472 305.22362759 196.45348549 311.83745575 C196.47672538 318.05907867 196.48101571 324.28042779 196.47072411 330.50208282 C196.47022766 332.78576059 196.47657998 335.06945165 196.49028015 337.35308838 C196.50793836 340.47089031 196.50092222 343.5877032 196.48774719 346.70550537 C196.50420106 348.06091954 196.50420106 348.06091954 196.52098733 349.44371581 C196.46108648 355.31545028 195.38583665 358.73253241 192 363.5625 C189.93896484 365.3125 189.93896484 365.3125 187.7109375 366.5625 C186.86563477 367.04895996 186.02033203 367.53541992 185.14941406 368.03662109 C184.23385742 368.54016113 183.31830078 369.04370117 182.375 369.5625 C181.40788086 370.11373535 180.44076172 370.6649707 179.44433594 371.23291016 C177.37081033 372.41386071 175.29319214 373.58764925 173.21191406 374.75488281 C168.9475107 377.15482524 164.71610625 379.61001409 160.48291016 382.06445312 C157.20565988 383.96318927 153.92389614 385.85388381 150.640625 387.7421875 C144.09031108 391.50967574 137.544733 395.28532734 131 399.0625 C128.83335502 400.31253758 126.66668834 401.56253756 124.5 402.8125 C123.4275 403.43125 122.355 404.05 121.25 404.6875 C59.5 440.3125 59.5 440.3125 56.24951172 442.18774414 C54.08442929 443.43685518 51.91939018 444.68604129 49.75439453 445.93530273 C44.31384294 449.07452309 38.87252784 452.21240563 33.4296875 455.34765625 C31.24476903 456.60673155 29.05987307 457.86584592 26.875 459.125 C25.8125708 459.73690186 24.7501416 460.34880371 23.65551758 460.97924805 C18.16045154 464.14791744 12.67620108 467.33368865 7.20703125 470.546875 C6.11213379 471.18939209 5.01723633 471.83190918 3.88916016 472.49389648 C1.80759868 473.71689718 -0.27225312 474.94281407 -2.35009766 476.17211914 C-3.28257324 476.71989014 -4.21504883 477.26766113 -5.17578125 477.83203125 C-6.39648315 478.55289917 -6.39648315 478.55289917 -7.6418457 479.28833008 C-12.57700169 481.95491866 -16.3427271 483.2924707 -22 482.5625 C-25.84435442 480.87603019 -29.38608362 478.68984085 -33 476.5625 C-34.28654055 475.84700878 -35.57576911 475.13633649 -36.8671875 474.4296875 C-47.57975708 468.56785875 -58.12697147 462.43591905 -68.6640625 456.265625 C-75.05281992 452.52615411 -81.46116076 448.82124966 -87.875 445.125 C-88.95458984 444.50278564 -90.03417969 443.88057129 -91.14648438 443.23950195 C-93.3368252 441.97738483 -95.52725502 440.71542215 -97.71777344 439.45361328 C-103.14659942 436.32569852 -108.57319281 433.19391552 -114 430.0625 C-116.16665583 428.81248121 -118.3333225 427.56248122 -120.5 426.3125 C-133.5 418.8125 -146.5 411.3125 -159.5 403.8125 C-161.1092334 402.8841333 -161.1092334 402.8841333 -162.75097656 401.93701172 C-164.91447476 400.68878966 -167.07788643 399.44041761 -169.24121094 398.19189453 C-174.70565017 395.03844744 -180.17163645 391.88773904 -185.640625 388.7421875 C-191.04638914 385.63238146 -196.44616649 382.51238551 -201.84277344 379.38671875 C-203.96351769 378.1613707 -206.08660625 376.94007185 -208.21191406 375.72265625 C-211.27158452 373.96996544 -214.32388549 372.20503168 -217.375 370.4375 C-218.29055664 369.91720215 -219.20611328 369.3969043 -220.14941406 368.86083984 C-225.35828325 365.82349123 -229.23022901 363.10204197 -232 357.5625 C-232.10499432 354.43888381 -232.14779182 351.33721648 -232.14717102 348.21307373 C-232.15084771 347.23146216 -232.1545244 346.24985058 -232.1583125 345.2384932 C-232.1693819 341.928196 -232.17319868 338.61793016 -232.17700195 335.30761719 C-232.18326412 332.94270222 -232.1899107 330.57778825 -232.19691467 328.21287537 C-232.21616629 321.10053435 -232.2267465 313.98819272 -232.23564246 306.87583292 C-232.24002432 303.527392 -232.24539141 300.17895266 -232.25063133 296.830513 C-232.26764478 285.70088403 -232.28213908 274.57125604 -232.28938007 263.44161606 C-232.29129 260.55271147 -232.29321033 257.6638069 -232.29516602 254.77490234 C-232.29564976 254.05686905 -232.2961335 253.33883575 -232.2966319 252.59904388 C-232.30493267 240.96666082 -232.33026982 229.33438058 -232.36274669 217.70204243 C-232.39581048 205.76223704 -232.41382823 193.82248391 -232.41702431 181.88263249 C-232.41919011 175.17767924 -232.42794865 168.47287589 -232.45348549 161.76796722 C-232.47670879 155.46100106 -232.48102244 149.15430499 -232.47072411 142.84730721 C-232.47022725 140.53095923 -232.47659163 138.21459822 -232.49028015 135.89829063 C-232.50791024 132.73848776 -232.50093612 129.57966352 -232.48774719 126.41986084 C-232.49871644 125.50098359 -232.50968568 124.58210634 -232.52098733 123.63538432 C-232.46532046 118.11980433 -231.71193358 114.91953196 -228 110.5625 C-225.38818359 108.65063477 -225.38818359 108.65063477 -222.3984375 107.00390625 C-221.28210938 106.37871094 -220.16578125 105.75351562 -219.015625 105.109375 C-217.80213097 104.44782929 -216.58858799 103.78637335 -215.375 103.125 C-214.11110479 102.42214295 -212.84809665 101.71768859 -211.5859375 101.01171875 C-208.99087124 99.56124492 -206.39257449 98.11682757 -203.79199219 96.67626953 C-198.1531935 93.54374245 -192.57866698 90.30050368 -187 87.0625 C-178.05555371 81.89229983 -169.09635686 76.74833161 -160.125 71.625 C-159.54528442 71.29389221 -158.96556885 70.96278442 -158.36828613 70.62164307 C-152.45981772 67.24728028 -146.54983293 63.87558498 -140.63827515 60.50663757 C-128.08145666 53.34974218 -115.54975488 46.15419576 -103.07714844 38.85107422 C-95.41368873 34.37037126 -87.71276123 29.95749302 -80 25.5625 C-71.08003464 20.47861679 -62.1793899 15.36364292 -53.3125 10.1875 C-52.33442383 9.61684814 -51.35634766 9.04619629 -50.34863281 8.45825195 C-45.84459171 5.82579669 -41.34948054 3.17979243 -36.87109375 0.50390625 C-36.08500732 0.03581543 -35.2989209 -0.43227539 -34.48901367 -0.91455078 C-33.04764473 -1.77424854 -31.60878787 -2.63817943 -30.1730957 -3.50732422 C-18.80202722 -10.28659428 -10.74574175 -6.34500269 0 0 Z M-19 36.5625 C-19.5261792 37.50996094 -19.5261792 37.50996094 -20.06298828 38.4765625 C-27.70985139 52.22952135 -35.48090039 65.89619051 -43.4375 79.47265625 C-47.13213337 85.77820465 -50.7884724 92.10547534 -54.4375 98.4375 C-55.37021729 100.05555542 -55.37021729 100.05555542 -56.32177734 101.70629883 C-58.21499899 104.99142251 -60.10760983 108.27689728 -62 111.5625 C-64.52009089 115.93792829 -67.0408101 120.31299305 -69.5625 124.6875 C-70.17432129 125.74904297 -70.78614258 126.81058594 -71.41650391 127.90429688 C-76.44665746 136.6230526 -81.51585808 145.31874311 -86.60961914 154.00048828 C-87.15739014 154.93618652 -87.70516113 155.87188477 -88.26953125 156.8359375 C-88.75010986 157.65497559 -89.23068848 158.47401367 -89.72583008 159.31787109 C-90.88608745 161.36182707 -91.94890978 163.46031957 -93 165.5625 C-43.83 165.5625 5.34 165.5625 56 165.5625 C54.50697948 161.82994871 53.04854911 158.73287559 51.05078125 155.30078125 C50.4578125 154.27791016 49.86484375 153.25503906 49.25390625 152.20117188 C48.61324219 151.10353516 47.97257813 150.00589844 47.3125 148.875 C46.6376662 147.71309652 45.96319344 146.55098329 45.2890625 145.38867188 C43.88892911 142.9752596 42.48724981 140.5627554 41.08447266 138.15087891 C37.87508732 132.62982929 34.68874937 127.09548399 31.5 121.5625 C30.2501082 119.39577091 29.00010785 117.22910444 27.75 115.0625 C20.25 102.0625 20.25 102.0625 18.37426758 98.81103516 C17.12693452 96.64912116 15.8793767 94.48733683 14.6315918 92.32568359 C11.46391168 86.83735415 8.30043239 81.34667467 5.14453125 75.8515625 C-0.7990415 65.50947459 -6.76658758 55.18333141 -12.875 44.9375 C-13.38119873 44.08365723 -13.88739746 43.22981445 -14.40893555 42.35009766 C-15.09983276 41.19840088 -15.09983276 41.19840088 -15.8046875 40.0234375 C-16.20671387 39.35103027 -16.60874023 38.67862305 -17.02294922 37.98583984 C-17.34537598 37.5161377 -17.66780273 37.04643555 -18 36.5625 C-18.33 36.5625 -18.66 36.5625 -19 36.5625 Z M-66.9375 51.625 C-86.97920893 63.49660634 -107.23678742 75.00137977 -127.46777344 86.54638672 C-130.9818068 88.55185815 -134.49494213 90.55889853 -138.0078125 92.56640625 C-138.58599731 92.89679398 -139.16418213 93.2271817 -139.7598877 93.56758118 C-142.65437796 95.22165129 -145.54855473 96.87626552 -148.44238281 98.53149414 C-153.92956162 101.66929524 -159.41909134 104.80269362 -164.91705322 107.92156982 C-167.52554602 109.40164772 -170.13269832 110.88407786 -172.73974609 112.36669922 C-173.98777352 113.07556328 -175.23646305 113.78326302 -176.48583984 114.48974609 C-178.21356452 115.46681384 -179.93887375 116.44814906 -181.6640625 117.4296875 C-182.64842285 117.98769043 -183.6327832 118.54569336 -184.64697266 119.12060547 C-187.07671103 120.48357228 -187.07671103 120.48357228 -189 122.5625 C-187.9790625 123.12195313 -186.958125 123.68140625 -185.90625 124.2578125 C-175.94706052 129.74067346 -166.09993614 135.39517409 -156.29296875 141.14550781 C-145.59734604 147.40627673 -134.80731682 153.4971069 -124 159.5625 C-121.34434213 157.16280318 -119.72001447 154.59805811 -117.953125 151.49609375 C-117.36337891 150.46677734 -116.77363281 149.43746094 -116.16601562 148.37695312 C-115.53373047 147.26255859 -114.90144531 146.14816406 -114.25 145 C-113.58058653 143.82848539 -112.91065574 142.65726624 -112.24023438 141.48632812 C-110.84760003 139.05306166 -109.45720253 136.61853768 -108.06835938 134.18310547 C-104.89970234 128.63092407 -101.69820559 123.09769338 -98.5 117.5625 C-97.24984475 115.39592291 -95.99984527 113.22925593 -94.75 111.0625 C-87.25 98.0625 -87.25 98.0625 -85.37182617 94.80737305 C-84.13197277 92.65804585 -82.8925465 90.50847219 -81.65356445 88.35864258 C-78.72836237 83.28415511 -75.79888277 78.21228383 -72.85409546 73.1491394 C-71.4645137 70.75934332 -70.07737828 68.36813164 -68.69042969 65.97680664 C-67.71136747 64.29109411 -66.72877394 62.60743413 -65.74609375 60.92382812 C-65.153125 59.90095703 -64.56015625 58.87808594 -63.94921875 57.82421875 C-63.42674561 56.92662842 -62.90427246 56.02903809 -62.3659668 55.10424805 C-61.0418456 52.64036498 -59.98293426 50.17885269 -59 47.5625 C-61.57502853 47.5625 -64.70954438 50.29532707 -66.9375 51.625 Z M23 48.5625 C24.424206 52.37212064 26.17908883 55.80653968 28.203125 59.33203125 C28.84644775 60.45561035 29.48977051 61.57918945 30.15258789 62.73681641 C30.85159872 63.94961721 31.55073939 65.16234319 32.25 66.375 C32.9747148 67.63709978 33.69924024 68.89930831 34.42358398 70.16162109 C39.50374563 79.00526363 44.63125603 87.82117967 49.78051758 96.62475586 C55.91569271 107.11482138 61.98178416 117.64439436 68.04736328 128.17480469 C70.11142758 131.75581946 72.1783705 135.33515987 74.24609375 138.9140625 C75.28592855 140.71435866 76.32572267 142.51467831 77.36550903 144.31500244 C78.35717984 146.03165208 79.34936163 147.7480065 80.34155273 149.46435547 C80.93782471 150.49705566 81.53409668 151.52975586 82.1484375 152.59375 C82.94000244 153.96370117 82.94000244 153.96370117 83.74755859 155.36132812 C84.53336511 156.74238691 85.28939248 158.14128495 86 159.5625 C89.54434427 158.21794302 92.80799193 156.65021656 96.11328125 154.796875 C97.10239502 154.24330322 98.09150879 153.68973145 99.1105957 153.11938477 C100.16722412 152.52311279 101.22385254 151.92684082 102.3125 151.3125 C103.41102295 150.6949585 104.5095459 150.07741699 105.64135742 149.44116211 C116.21235573 143.47936951 126.69845184 137.37409908 137.16259766 131.22705078 C142.10263443 128.32899789 147.05159229 125.44622912 152 122.5625 C149.61355787 119.91324467 147.09118433 118.34382049 143.9765625 116.62890625 C142.96682373 116.06896973 141.95708496 115.5090332 140.91674805 114.93212891 C139.83047119 114.33577637 138.74419434 113.73942383 137.625 113.125 C135.33161643 111.85361256 133.0386535 110.58146609 130.74609375 109.30859375 C129.60124512 108.67421387 128.45639648 108.03983398 127.27685547 107.38623047 C122.72730145 104.85418096 118.20412013 102.27772435 113.6875 99.6875 C112.85259033 99.20909668 112.01768066 98.73069336 111.1574707 98.23779297 C109.39487888 97.22762168 107.63243198 96.21719749 105.87011719 95.20654297 C102.70955141 93.39612702 99.54641055 91.59026808 96.3828125 89.78515625 C84.8260965 83.19084818 73.27700723 76.58365543 61.75 69.9375 C60.6978833 69.33115723 59.6457666 68.72481445 58.56176758 68.10009766 C53.06419262 64.92658029 47.57918548 61.73284011 42.109375 58.51171875 C40.99981445 57.85961426 39.89025391 57.20750977 38.74707031 56.53564453 C36.62434399 55.28658767 34.50380163 54.03380984 32.38574219 52.77685547 C31.44375977 52.22271973 30.50177734 51.66858398 29.53125 51.09765625 C28.70173828 50.606604 27.87222656 50.11555176 27.01757812 49.60961914 C25.08299336 48.40894914 25.08299336 48.40894914 23 48.5625 Z M-203 147.5625 C-203 196.7325 -203 245.9025 -203 296.5625 C-200.20036222 293.06295278 -198.03087877 290.11450951 -195.85546875 286.30078125 C-195.26894531 285.27791016 -194.68242187 284.25503906 -194.078125 283.20117188 C-193.45421875 282.10353516 -192.8303125 281.00589844 -192.1875 279.875 C-191.52258588 278.71263283 -190.85721263 277.55052819 -190.19140625 276.38867188 C-188.8099087 273.9770854 -187.43038435 271.56438656 -186.05224609 269.15087891 C-182.88661445 263.61079045 -179.69176113 258.08756019 -176.5 252.5625 C-175.24986359 250.39591204 -173.999864 248.22924512 -172.75 246.0625 C-165.25 233.0625 -165.25 233.0625 -163.37158203 229.80688477 C-162.13261766 227.6591418 -160.89400576 225.51119545 -159.65576172 223.36303711 C-156.71985895 218.27070563 -153.78030245 213.18058305 -150.82830811 208.0975647 C-149.42931947 205.68815992 -148.03232971 203.2775991 -146.63549805 200.86694336 C-145.64501929 199.15951018 -144.6516406 197.45376028 -143.65820312 195.74804688 C-143.06201172 194.71873047 -142.46582031 193.68941406 -141.8515625 192.62890625 C-141.05999756 191.2668103 -141.05999756 191.2668103 -140.25244141 189.87719727 C-138.8878949 187.51508499 -138.8878949 187.51508499 -138 184.5625 C-138.72251953 184.15112793 -139.44503906 183.73975586 -140.18945312 183.31591797 C-155.0237626 174.86560933 -169.82785591 166.36938885 -184.5625 157.74609375 C-185.43777344 157.2341748 -186.31304687 156.72225586 -187.21484375 156.19482422 C-189.25057097 155.00172532 -191.28412628 153.80491843 -193.31640625 152.60595703 C-194.40824219 151.96384277 -195.50007813 151.32172852 -196.625 150.66015625 C-197.62789062 150.06855713 -198.63078125 149.47695801 -199.6640625 148.86743164 C-201.69954989 147.48121757 -201.69954989 147.48121757 -203 147.5625 Z M161.27734375 150.1328125 C159.77469971 150.97259644 159.77469971 150.97259644 158.24169922 151.8293457 C157.15131348 152.44253662 156.06092773 153.05572754 154.9375 153.6875 C153.81875488 154.31551514 152.70000977 154.94353027 151.54736328 155.59057617 C134.87539655 164.97893505 118.36508673 174.649034 102 184.5625 C103.62839106 190.74416287 106.94247095 195.87340634 110.1875 201.3125 C111.46419778 203.47617549 112.74021671 205.64025166 114.015625 207.8046875 C115.0046582 209.47869629 115.0046582 209.47869629 116.01367188 211.18652344 C119.18925356 216.5837633 122.3137656 222.01014 125.4375 227.4375 C126.69658348 229.62241376 127.95569823 231.80730949 129.21484375 233.9921875 C130.15239502 235.61979004 130.15239502 235.61979004 131.10888672 237.28027344 C132.98948106 240.54424327 134.87140546 243.80744189 136.75390625 247.0703125 C137.37297852 248.14337646 137.99205078 249.21644043 138.62988281 250.32202148 C139.86964587 252.47024277 141.10987497 254.61819518 142.35058594 256.76586914 C145.27523575 261.83015952 148.19444762 266.89735133 151.09432983 271.9758606 C152.46063872 274.36787117 153.83005286 276.75809708 155.19970703 279.14819336 C156.16221014 280.83078963 157.12022931 282.51594836 158.078125 284.20117188 C158.66464844 285.22404297 159.25117187 286.24691406 159.85546875 287.30078125 C160.62346802 288.64716675 160.62346802 288.64716675 161.40698242 290.02075195 C163.25442372 293.07636973 163.25442372 293.07636973 167 297.5625 C167 248.0625 167 198.5625 167 147.5625 C164.97210197 147.5625 162.98262699 149.17906499 161.27734375 150.1328125 Z M-92 194.5625 C-90.51508007 198.27479983 -89.03192692 201.46850693 -87.09375 204.921875 C-86.52019775 205.94595459 -85.94664551 206.97003418 -85.35571289 208.02514648 C-84.74332764 209.10997314 -84.13094238 210.1947998 -83.5 211.3125 C-82.86634521 212.43922119 -82.23269043 213.56594238 -81.57983398 214.72680664 C-77.74999436 221.51767743 -73.86664399 228.27234746 -69.8894043 234.9777832 C-66.14695337 241.28974525 -62.47596521 247.64191601 -58.8125 254 C-58.17449463 255.10722412 -57.53648926 256.21444824 -56.87915039 257.35522461 C-55.57110523 259.62587068 -54.26324552 261.89662358 -52.95556641 264.16748047 C-49.1924982 270.70046754 -45.42330615 277.22992295 -41.65478516 283.75976562 C-38.71883248 288.8476162 -35.78416114 293.93619239 -32.85409546 299.0274353 C-31.46671905 301.43793748 -30.07860376 303.84801376 -28.69042969 306.25805664 C-27.70826185 307.96393968 -26.72716615 309.67043986 -25.74609375 311.37695312 C-25.153125 312.40626953 -24.56015625 313.43558594 -23.94921875 314.49609375 C-23.16550903 315.8581897 -23.16550903 315.8581897 -22.3659668 317.24780273 C-21.30022034 319.05376201 -20.16319248 320.81771129 -19 322.5625 C-18.34 322.5625 -17.68 322.5625 -17 322.5625 C-16.64921387 321.93085938 -16.29842773 321.29921875 -15.93701172 320.6484375 C-8.88024864 307.95677938 -1.74112159 295.32513087 5.60595703 282.79882812 C10.12600344 275.08454876 14.57454531 267.33121892 19 259.5625 C23.97697631 250.82830829 28.98745495 242.11523607 34.0625 233.4375 C38.84079418 225.26519328 43.61041071 217.08807365 48.3510437 208.89385986 C49.35890101 207.15281062 50.36900774 205.41306415 51.37915039 203.67333984 C52.28588501 202.10447021 52.28588501 202.10447021 53.2109375 200.50390625 C54.01990479 199.10700562 54.01990479 199.10700562 54.84521484 197.68188477 C56.07974253 195.81840969 56.07974253 195.81840969 56 194.5625 C7.16 194.5625 -41.68 194.5625 -92 194.5625 Z M-119 209.5625 C-119.5261792 210.50996094 -119.5261792 210.50996094 -120.06298828 211.4765625 C-127.70985139 225.22952135 -135.48090039 238.89619051 -143.4375 252.47265625 C-147.13213337 258.77820465 -150.7884724 265.10547534 -154.4375 271.4375 C-155.37021729 273.05555542 -155.37021729 273.05555542 -156.32177734 274.70629883 C-158.21499899 277.99142251 -160.10760983 281.27689728 -162 284.5625 C-164.52009089 288.93792829 -167.0408101 293.31299305 -169.5625 297.6875 C-170.17432129 298.74904297 -170.78614258 299.81058594 -171.41650391 300.90429688 C-176.44665746 309.6230526 -181.51585808 318.31874311 -186.60961914 327.00048828 C-187.15739014 327.93618652 -187.70516113 328.87188477 -188.26953125 329.8359375 C-188.75010986 330.65497559 -189.23068848 331.47401367 -189.72583008 332.31787109 C-190.88608745 334.36182707 -191.94890978 336.46031957 -193 338.5625 C-143.83 338.5625 -94.66 338.5625 -44 338.5625 C-45.42818801 334.27793596 -46.51298523 331.3714992 -48.73046875 327.640625 C-49.27823975 326.71137207 -49.82601074 325.78211914 -50.39038086 324.82470703 C-50.98343018 323.83067871 -51.57647949 322.83665039 -52.1875 321.8125 C-53.46419778 319.64882451 -54.74021671 317.48474834 -56.015625 315.3203125 C-57.0046582 313.64630371 -57.0046582 313.64630371 -58.01367188 311.93847656 C-61.18925356 306.5412367 -64.3137656 301.11486 -67.4375 295.6875 C-68.69658348 293.50258624 -69.95569823 291.31769051 -71.21484375 289.1328125 C-71.83987793 288.04774414 -72.46491211 286.96267578 -73.10888672 285.84472656 C-76.2368015 280.41590055 -79.36861966 274.98932751 -82.5 269.5625 C-83.74609839 267.40234643 -84.99219214 265.24219017 -86.23828125 263.08203125 C-88.77615993 258.68290925 -91.31536583 254.28455679 -93.85546875 249.88671875 C-101.60577436 236.46543385 -109.32586445 223.02749442 -117 209.5625 C-117.66 209.5625 -118.32 209.5625 -119 209.5625 Z M81 209.5625 C80.08026569 210.98137494 79.21374392 212.43472321 78.3671875 213.8984375 C77.81619385 214.84702637 77.2652002 215.79561523 76.69750977 216.77294922 C75.79536743 218.33940186 75.79536743 218.33940186 74.875 219.9375 C74.24972412 221.01660645 73.62444824 222.09571289 72.98022461 223.20751953 C71.31499327 226.08347006 69.65309319 228.96128657 67.9932251 231.84033203 C66.417947 234.57173046 64.83958115 237.30134388 63.26171875 240.03125 C60.13428838 245.44535032 57.01198701 250.86239159 53.89111328 256.28027344 C50.76319852 261.70909942 47.63141552 267.13569281 44.5 272.5625 C43.24998121 274.72915583 41.99998122 276.8958225 40.75 279.0625 C33.25 292.0625 33.25 292.0625 31.37133789 295.31860352 C30.13326257 297.46476227 28.89546522 299.61108141 27.65795898 301.75756836 C24.71135093 306.86774525 21.76176506 311.97614143 18.80252075 317.07901001 C17.39411938 319.50801977 15.98727907 321.93793188 14.58056641 324.36791992 C13.57867794 326.09707851 12.57451359 327.8249178 11.5703125 329.55273438 C10.97089844 330.58849609 10.37148438 331.62425781 9.75390625 332.69140625 C9.22095947 333.60994385 8.6880127 334.52848145 8.13891602 335.47485352 C6.92018052 337.31245871 6.92018052 337.31245871 7 338.5625 C56.17 338.5625 105.34 338.5625 156 338.5625 C154.50697948 334.82994871 153.04854911 331.73287559 151.05078125 328.30078125 C150.4578125 327.27791016 149.86484375 326.25503906 149.25390625 325.20117188 C148.61324219 324.10353516 147.97257813 323.00589844 147.3125 321.875 C146.6376662 320.71309652 145.96319344 319.55098329 145.2890625 318.38867188 C143.88892911 315.9752596 142.48724981 313.5627554 141.08447266 311.15087891 C137.87508732 305.62982929 134.68874937 300.09548399 131.5 294.5625 C130.2501082 292.39577091 129.00010785 290.22910444 127.75 288.0625 C120.25 275.0625 120.25 275.0625 118.37426758 271.81103516 C117.12693452 269.64912116 115.8793767 267.48733683 114.6315918 265.32568359 C111.46391168 259.83735415 108.30043239 254.34667467 105.14453125 248.8515625 C99.2009585 238.50947459 93.23341242 228.18333141 87.125 217.9375 C86.61880127 217.08365723 86.11260254 216.22981445 85.59106445 215.35009766 C84.90016724 214.19840088 84.90016724 214.19840088 84.1953125 213.0234375 C83.79328613 212.35103027 83.39125977 211.67862305 82.97705078 210.98583984 C82.65462402 210.5161377 82.33219727 210.04643555 82 209.5625 C81.67 209.5625 81.34 209.5625 81 209.5625 Z M-161 367.5625 C-158.17078488 370.39171512 -155.87736324 371.92033041 -152.42578125 373.86328125 C-151.29575684 374.50338135 -150.16573242 375.14348145 -149.00146484 375.80297852 C-148.10050079 376.30899094 -148.10050079 376.30899094 -147.18133545 376.82522583 C-143.98901802 378.61843474 -140.80583354 380.42775434 -137.62109375 382.234375 C-136.97456848 382.60051407 -136.32804321 382.96665314 -135.66192627 383.34388733 C-129.70368197 386.72107254 -123.7843799 390.16305967 -117.875 393.625 C-106.38194472 400.34942622 -94.85126286 407.00733706 -83.31298828 413.65380859 C-78.83587419 416.23318059 -74.35987571 418.8144834 -69.88427734 421.39648438 C-67.69354454 422.66010859 -65.50247127 423.92314277 -63.31103516 425.18554688 C-58.26964235 428.09109719 -53.23434117 431.00597978 -48.21484375 433.94921875 C-47.32917725 434.46709961 -46.44351074 434.98498047 -45.53100586 435.51855469 C-43.88774342 436.48038708 -42.24650284 437.44568523 -40.60766602 438.41503906 C-37.04280153 440.73222676 -37.04280153 440.73222676 -33 441.5625 C-33 417.1425 -33 392.7225 -33 367.5625 C-75.24 367.5625 -117.48 367.5625 -161 367.5625 Z M-4 367.5625 C-4 392.3125 -4 417.0625 -4 442.5625 C11.58511556 434.06152788 27.14668194 425.50899458 42.41674805 416.45092773 C48.72835239 412.7090212 55.07995305 409.03822707 61.4375 405.375 C62.54327393 404.73771973 63.64904785 404.10043945 64.78833008 403.44384766 C68.1919253 401.4828862 71.59591889 399.52261785 75 397.5625 C82.57969529 393.19718379 90.15755811 388.82873778 97.73046875 384.45166016 C99.97728132 383.15343467 102.2246062 381.85613627 104.47265625 380.56005859 C107.85938575 378.60704674 111.24233614 376.64754586 114.625 374.6875 C115.66930176 374.08607178 116.71360352 373.48464355 117.78955078 372.86499023 C118.73813965 372.31399658 119.68672852 371.76300293 120.6640625 371.1953125 C121.50404785 370.70949707 122.3440332 370.22368164 123.20947266 369.72314453 C123.80034668 369.34013184 124.3912207 368.95711914 125 368.5625 C125 368.2325 125 367.9025 125 367.5625 C82.43 367.5625 39.86 367.5625 -4 367.5625 Z " fill="#000000" transform="translate(418,162.4375)"/>
<path d="M0 0 C1.72633667 -0.01045349 1.72633667 -0.01045349 3.48754883 -0.02111816 C7.17923684 -0.03841323 10.87077317 -0.04483736 14.5625 -0.046875 C16.4506543 -0.04838562 16.4506543 -0.04838562 18.37695312 -0.04992676 C36.33830338 -0.04018509 53.79756937 0.40815839 71.5625 3.203125 C73.4684421 3.46320397 75.37469552 3.72101137 77.28125 3.9765625 C135.77247341 12.29209862 193.16938505 35.50077709 241.5625 69.203125 C242.10003906 69.57614746 242.63757813 69.94916992 243.19140625 70.33349609 C273.77206742 91.62327871 302.45418141 116.89400536 325.5625 146.203125 C326.46549543 147.30498841 327.37057523 148.40514578 328.27734375 149.50390625 C341.58137658 165.71237186 353.18806871 182.99119757 363.5625 201.203125 C364.09230469 202.13108887 364.62210938 203.05905273 365.16796875 204.01513672 C395.89182533 258.24712229 415.50908885 321.95441439 415.765625 384.640625 C415.77263931 385.79128952 415.77965363 386.94195404 415.78688049 388.12748718 C415.80428809 391.81940672 415.81073258 395.51116594 415.8125 399.203125 C415.81351212 401.09377182 415.81351212 401.09377182 415.81454468 403.02261353 C415.79924464 420.97813569 415.41916121 438.45021273 412.5625 456.203125 C412.39621094 457.33395508 412.22992187 458.46478516 412.05859375 459.62988281 C399.12907741 547.43087618 356.52749693 625.09567363 294.3125 687.578125 C293.56790527 688.32739258 292.82331055 689.07666016 292.05615234 689.84863281 C287.38681308 694.50447988 282.57356578 698.91891577 277.5625 703.203125 C276.54146227 704.09221324 275.52061355 704.98151861 274.5 705.87109375 C248.61862679 728.06987796 219.91940456 745.8444816 189.5625 761.203125 C188.75296875 761.61594727 187.9434375 762.02876953 187.109375 762.45410156 C140.07509209 786.27120656 84.00649253 800.18934182 31.16015625 800.40625 C30.01218063 800.41326431 28.86420502 800.42027863 27.68144226 800.42750549 C23.99592117 800.4449177 20.31056072 800.45135799 16.625 800.453125 C15.36651245 800.45379974 14.1080249 800.45447449 12.81140137 800.45516968 C-5.47122513 800.43957415 -23.35178322 800.08857958 -41.4375 797.203125 C-42.58879395 797.02620117 -43.74008789 796.84927734 -44.92626953 796.66699219 C-81.95554953 790.86535422 -118.55865546 780.38563473 -152.4375 764.203125 C-153.17258789 763.8529834 -153.90767578 763.5028418 -154.66503906 763.14208984 C-158.65300387 761.22511642 -162.60056871 759.2401494 -166.52490234 757.19628906 C-168.49597016 756.17276291 -170.47599635 755.16814217 -172.45703125 754.1640625 C-190.8012504 744.77003832 -208.00418113 733.61923429 -224.4375 721.203125 C-225.06205078 720.73165039 -225.68660156 720.26017578 -226.33007812 719.77441406 C-277.4863709 680.89673525 -316.66954733 631.46221066 -345.4375 574.203125 C-346.00162598 573.0888916 -346.00162598 573.0888916 -346.57714844 571.95214844 C-370.34855739 524.65485682 -384.42278157 468.87497768 -384.640625 415.80078125 C-384.64763931 414.65280563 -384.65465363 413.50483002 -384.66188049 412.32206726 C-384.6792927 408.63654617 -384.68573299 404.95118572 -384.6875 401.265625 C-384.68817474 400.00713745 -384.68884949 398.7486499 -384.68954468 397.45202637 C-384.67394915 379.16939987 -384.32295458 361.28884178 -381.4375 343.203125 C-381.17211426 341.47618408 -381.17211426 341.47618408 -380.90136719 339.71435547 C-375.09952744 302.6837876 -364.61811009 266.08391552 -348.4375 232.203125 C-348.09267578 231.47867188 -347.74785156 230.75421875 -347.39257812 230.0078125 C-345.48592275 226.03840131 -343.50679761 222.11202756 -341.47363281 218.20605469 C-340.36877732 216.07027843 -339.28965439 213.92252351 -338.2109375 211.7734375 C-326.07787331 187.85913782 -310.7907511 165.62934765 -293.4375 145.203125 C-292.54152424 144.13293173 -291.64569976 143.06261179 -290.75 141.9921875 C-274.90481408 123.16715264 -257.78556974 105.45780904 -238.4375 90.203125 C-237.33563659 89.30012957 -236.23547922 88.39504977 -235.13671875 87.48828125 C-218.92825314 74.18424842 -201.64942743 62.57755629 -183.4375 52.203125 C-182.50953613 51.67332031 -181.58157227 51.14351562 -180.62548828 50.59765625 C-126.37250637 19.86190468 -62.66150938 0.25613532 0 0 Z M-38.4375 32.203125 C-39.66694336 32.40711914 -40.89638672 32.61111328 -42.16308594 32.82128906 C-105.67131135 43.68266592 -166.55050652 68.92606948 -216.4375 110.203125 C-217.71947266 111.22599609 -217.71947266 111.22599609 -219.02734375 112.26953125 C-230.42220937 121.40831157 -240.82332338 131.49037233 -251.1875 141.765625 C-252.0626123 142.62768555 -252.93772461 143.48974609 -253.83935547 144.37792969 C-259.80834358 150.33901783 -265.17384967 156.61727852 -270.4375 163.203125 C-271.31266063 164.24235978 -272.19277253 165.27749036 -273.08203125 166.3046875 C-323.60511492 225.11173624 -355.2878612 308.03431243 -355.640625 385.546875 C-355.64759399 386.58660461 -355.65456299 387.62633423 -355.66174316 388.6975708 C-355.67902767 392.03279729 -355.68546257 395.3678556 -355.6875 398.703125 C-355.68850708 399.84317993 -355.68951416 400.98323486 -355.69055176 402.15783691 C-355.680251 419.39221604 -355.10846938 436.15266961 -352.4375 453.203125 C-352.29828125 454.16283203 -352.1590625 455.12253906 -352.015625 456.11132812 C-342.30423706 522.60735943 -313.21667188 587.7726165 -268.93945312 638.43017578 C-267.77929702 639.79965784 -266.64800793 641.19362643 -265.52929688 642.59716797 C-260.08904992 649.4121404 -254.29111428 655.66110325 -248.10888672 661.79248047 C-246.56370622 663.32692716 -245.02953991 664.87180502 -243.49609375 666.41796875 C-237.13149998 672.79101365 -230.48553522 678.58277607 -223.4375 684.203125 C-222.3357461 685.13799205 -221.23941667 686.07935162 -220.15234375 687.03125 C-161.05737475 738.56272789 -77.53505592 771.04884259 0.90625 771.40625 C1.94579834 771.41326431 2.98534668 771.42027863 4.05639648 771.42750549 C7.391809 771.44490205 10.72704378 771.4513577 14.0625 771.453125 C15.20388428 771.45379974 16.34526855 771.45447449 17.52124023 771.45516968 C34.72168851 771.43901519 51.55118316 770.97402948 68.5625 768.203125 C69.67302734 768.02620117 70.78355469 767.84927734 71.92773438 767.66699219 C79.84843071 766.37368052 87.71220415 764.86964814 95.5625 763.203125 C96.5510498 762.99349121 97.53959961 762.78385742 98.55810547 762.56787109 C173.03809095 746.31564513 245.13564788 703.46721056 294.5625 645.203125 C295.33722656 644.31753906 296.11195313 643.43195312 296.91015625 642.51953125 C314.66874372 622.08962374 329.34281988 599.76359991 342.5625 576.203125 C342.95147461 575.51847168 343.34044922 574.83381836 343.74121094 574.12841797 C363.28332888 539.56107232 375.64051159 500.0209063 382.3125 461.015625 C382.51149902 459.85329346 382.71049805 458.69096191 382.91552734 457.4934082 C385.99938547 438.40657643 386.94215976 419.45749708 386.875 400.140625 C386.87284485 399.0203894 386.8706897 397.90015381 386.86846924 396.74597168 C386.81602851 379.72789572 386.37197191 363.02490064 383.5625 346.203125 C383.35850586 344.97368164 383.15451172 343.74423828 382.94433594 342.47753906 C372.65205003 282.2968804 349.44066089 226.01623008 312.5625 177.203125 C311.83135986 176.23439453 311.83135986 176.23439453 311.08544922 175.24609375 C305.70826208 168.16689406 300.11183213 161.40258118 294.046875 154.8984375 C292.10017428 152.78645087 290.21687069 150.64849532 288.34375 148.47265625 C284.19110401 143.71176055 279.78064293 139.22929352 275.3125 134.765625 C274.04962158 133.50395508 274.04962158 133.50395508 272.76123047 132.21679688 C267.74609229 127.2509309 262.70920479 122.55385399 257.13671875 118.21875 C254.72302599 116.32881758 252.407374 114.35261029 250.09716797 112.33837891 C190.95472943 61.04302638 107.47563964 29.35698303 29.21875 29 C28.17938293 28.99294037 27.14001587 28.98588074 26.06915283 28.97860718 C-6.30087042 28.74680058 -6.30087042 28.74680058 -38.4375 32.203125 Z " fill="#000000" transform="translate(384.4375,-0.203125)"/>
<path d="M0 0 C6.70610957 3.94540491 10.17190977 10.59949247 13.875 17.1875 C14.48504883 18.25758301 15.09509766 19.32766602 15.72363281 20.43017578 C34.07621342 52.99605851 45.79282177 88.18239915 52 125 C52.16516113 125.95729004 52.33032227 126.91458008 52.50048828 127.90087891 C57.50621071 158.31310152 57.14595253 191.64139031 52 222 C51.82839355 223.05558105 51.65678711 224.11116211 51.47998047 225.19873047 C44.96279774 264.52896727 31.27691635 317.06616074 2.5 346.5625 C-0.80948785 348.46545552 -3.17852339 348.93411247 -7 349 C-12.2295113 347.37704822 -15.41554297 345.11158306 -19 341 C-20.91228316 337.17543368 -20.61667284 333.15586923 -20 329 C-18.28479079 324.809119 -15.98491042 321.04416765 -13.625 317.1875 C-12.32720598 314.96505027 -11.03429219 312.73974408 -9.74609375 310.51171875 C-9.10655762 309.41134277 -8.46702148 308.3109668 -7.80810547 307.17724609 C22.17797576 254.48498831 32.26990756 187.57484278 22 128 C21.81195801 126.90429688 21.62391602 125.80859375 21.43017578 124.6796875 C15.36268075 90.77508517 3.38254869 56.66909606 -15.1875 27.49609375 C-18.67598222 21.98907444 -21.0261293 17.84432109 -20.4921875 11.19140625 C-19.49194514 6.73794623 -17.23576058 4.12341871 -13.9375 1.125 C-9.37673806 -0.62167478 -4.77010876 -1.13178184 0 0 Z " fill="#000000" transform="translate(658,226)"/>
<path d="M0 0 C3.06118916 1.64861134 6.02747695 3.40452243 8.99316406 5.21923828 C11.21561379 6.5170323 13.44091998 7.80994609 15.66894531 9.09814453 C16.76932129 9.73768066 17.86969727 10.3772168 19.00341797 11.03613281 C50.26012323 28.82368154 85.65541117 38.53740549 121.18066406 42.84423828 C122.01194824 42.94736328 122.84323242 43.05048828 123.69970703 43.15673828 C132.87056651 44.1457006 142.09221902 44.08792924 151.30566406 44.09423828 C152.19327423 44.09491302 153.0808844 44.09558777 153.99539185 44.09628296 C168.58280681 44.07872457 182.78072218 43.32563939 197.18066406 40.84423828 C198.68693359 40.59480469 198.68693359 40.59480469 200.22363281 40.34033203 C236.25490833 34.23716742 271.07126491 21.14256533 301.99316406 1.59423828 C307.06945038 -1.42788851 311.35108392 -2.46507918 317.18066406 -1.15576172 C321.58869031 1.00817844 324.41205632 3.22620695 326.18066406 7.84423828 C327.53326816 16.65665889 327.53326816 16.65665889 325.1171875 20.56420898 C321.26746153 25.43208267 316.69464117 28.33051459 311.30566406 31.28173828 C310.46849854 31.75200439 309.63133301 32.22227051 308.76879883 32.70678711 C301.67157521 36.65790895 294.49045005 40.42223261 287.15234375 43.90576172 C285.85485068 44.52334015 284.56107621 45.14880295 283.27148438 45.78271484 C253.17310438 60.53442972 219.38864025 69.22167082 186.18066406 72.84423828 C185.35501953 72.93850098 184.529375 73.03276367 183.67871094 73.12988281 C157.42815596 75.74092556 129.16221387 75.4371639 103.18066406 70.84423828 C102.02260254 70.64024414 100.86454102 70.43625 99.67138672 70.22607422 C83.1526151 67.2226612 67.08439429 63.21959694 51.18066406 57.84423828 C50.3754834 57.57530762 49.57030273 57.30637695 48.74072266 57.02929688 C30.68358481 50.92310859 13.2769522 42.95354884 -3.31933594 33.59423828 C-4.16093262 33.12348877 -5.0025293 32.65273926 -5.86962891 32.16772461 C-18.94710315 24.58870385 -18.94710315 24.58870385 -21.81933594 18.84423828 C-22.34591466 13.56118615 -22.46124716 9.17560971 -20.13183594 4.34423828 C-14.46465542 -1.78244336 -7.85605398 -3.22051953 0 0 Z " fill="#000000" transform="translate(247.8193359375,639.15576171875)"/>
<path d="M0 0 C3.90286846 1.98691485 6.89345495 4.11952229 9 8 C11.19682786 17.12528496 6.84149411 23.34827492 2.5 31.0625 C-21.80382323 75.10929356 -35.2163324 122.1461249 -35.25 172.5625 C-35.25067474 173.47184296 -35.25134949 174.38118591 -35.25204468 175.31808472 C-35.23432245 190.40235025 -34.54096602 205.09933506 -32 220 C-31.75056641 221.47098145 -31.75056641 221.47098145 -31.49609375 222.97167969 C-25.21066824 258.60073057 -12.92590317 295.04489532 7.50390625 325.17578125 C9.89377489 329.68720429 10.21291741 333.6278656 9.4375 338.625 C7.41884907 343.36444131 4.7114588 345.84501755 0.07421875 347.8203125 C-4.76428401 349.30474636 -8.29434704 349.13086172 -13 347 C-17.38646689 342.33710567 -20.48485703 337.1170202 -23.625 331.5625 C-24.14425049 330.64509033 -24.66350098 329.72768066 -25.19848633 328.7824707 C-51.78807222 281.15505931 -65.52923036 228.3936947 -65.3125 173.875 C-65.31034485 172.89176758 -65.3081897 171.90853516 -65.30596924 170.89550781 C-65.25170686 155.41347838 -64.70504389 140.2803638 -62 125 C-61.79600586 123.84725586 -61.59201172 122.69451172 -61.38183594 121.50683594 C-54.28486129 82.67491789 -41.36416502 45.88847823 -21.1875 11.875 C-20.75566406 11.13427246 -20.32382813 10.39354492 -19.87890625 9.63037109 C-14.97906216 1.64370038 -9.37014242 -1.52360039 0 0 Z " fill="#000000" transform="translate(152,226)"/>
<path d="M0 0 C0.98411865 0.00215515 1.9682373 0.0043103 2.98217773 0.00653076 C59.48364433 0.20435222 114.45578693 15.25460919 163.125 44.125 C163.86572754 44.55683594 164.60645508 44.98867187 165.36962891 45.43359375 C169.76110588 48.12777675 172.58038433 50.61451525 175 55.3125 C176.02581364 60.26054226 175.53459498 64.26240272 173.25 68.75 C170.078321 72.36218998 168.36216913 73.98457039 163.625 75.125 C156.13500809 75.51241337 150.25986627 71.37066892 143.9375 67.8125 C108.65470801 48.34441458 72.09612073 36.20464367 32 31.3125 C31.1759668 31.209375 30.35193359 31.10625 29.50292969 31 C20.16190964 29.9874233 10.75964938 30.06875389 1.375 30.0625 C0.46371338 30.06182526 -0.44757324 30.06115051 -1.38647461 30.06045532 C-16.12073767 30.07774072 -30.45533404 30.80282237 -45 33.3125 C-45.98677734 33.47347168 -46.97355469 33.63444336 -47.99023438 33.80029297 C-72.9327388 37.94808005 -97.15144021 45.48784321 -120 56.3125 C-120.8647998 56.72145508 -121.72959961 57.13041016 -122.62060547 57.55175781 C-131.09409146 61.59772668 -139.36517647 65.76589648 -147.25 70.875 C-152.0892826 73.93204042 -155.23861905 75.61050246 -161 75.3125 C-166.22992948 73.74352116 -168.97666921 71.84749619 -172 67.3125 C-173.20033249 64.91183502 -173.23537492 63.2415818 -173.3125 60.5625 C-173.34988281 59.72203125 -173.38726562 58.8815625 -173.42578125 58.015625 C-172.64506923 53.05917807 -170.08767913 50.12269482 -166.13671875 47.1796875 C-162.10970519 44.85377933 -158.07621587 42.5511254 -154 40.3125 C-153.15937012 39.84505371 -152.31874023 39.37760742 -151.45263672 38.89599609 C-136.76556757 30.78178578 -121.73337271 24.12700731 -106 18.3125 C-105.18724609 18.01118164 -104.37449219 17.70986328 -103.53710938 17.39941406 C-86.90535703 11.32875295 -69.60449112 7.15153446 -52.1875 4.0625 C-51.34292236 3.91151855 -50.49834473 3.76053711 -49.62817383 3.60498047 C-33.11659706 0.8387573 -16.72189033 -0.06630043 0 0 Z " fill="#000000" transform="translate(399,86.6875)"/>
<path d="M0 0 C3.33297633 1.7513399 5.44230701 4.06206179 7.375 7.3125 C8.8722447 13.75065221 8.6374635 17.58516118 5.21289062 23.26904297 C3.32677055 25.96078841 1.04085166 27.97956125 -1.4375 30.125 C-2.50241798 31.06497603 -3.56482191 32.00780618 -4.625 32.953125 C-5.17542969 33.44361328 -5.72585937 33.93410156 -6.29296875 34.43945312 C-9.26685854 37.15814642 -12.10093114 40.01435438 -14.9375 42.875 C-15.46851318 43.41012207 -15.99952637 43.94524414 -16.54663086 44.49658203 C-18.93961745 46.91266183 -21.32573005 49.33421505 -23.69921875 51.76953125 C-27.33723337 55.29636716 -30.45688006 56.83466572 -35.5 57.375 C-40.51699224 56.83746512 -43.56669852 55.27834997 -47.3125 51.9375 C-49.68006971 47.81617495 -50.39199416 43.73956576 -50 39 C-47.06208441 31.72198184 -41.36573845 26.54454673 -36 21 C-35.35144043 20.32952637 -34.70288086 19.65905273 -34.03466797 18.96826172 C-31.94908814 16.82364213 -29.85220132 14.6908232 -27.75 12.5625 C-27.08911377 11.88848145 -26.42822754 11.21446289 -25.74731445 10.52001953 C-17.89707765 2.65700853 -11.5344721 -2.61902477 0 0 Z " fill="#000000" transform="translate(210,161)"/>
<path d="M0 0 C0.74765625 -0.03738281 1.4953125 -0.07476563 2.265625 -0.11328125 C8.30008491 0.9209265 12.71612616 6.0016227 16.84765625 10.21484375 C17.40440536 10.77442276 17.96115448 11.33400177 18.53477478 11.91053772 C20.29881118 13.68567734 22.0557494 15.46765276 23.8125 17.25 C24.99497459 18.44252165 26.17791335 19.63458322 27.36132812 20.82617188 C30.02534502 23.51005084 32.68450131 26.1986494 35.34011841 28.89083862 C36.73199896 30.29434856 38.13632301 31.68548249 39.54077148 33.07641602 C42.94492682 36.5219524 43.64576995 38.25282784 44.125 43.125 C43.97405533 47.62818269 42.7770515 50.94533035 39.75 54.3125 C35.99996597 57.19969434 32.38614278 58.67733853 27.625 58.3125 C20.57488426 57.34424376 15.04081086 51.03546725 10.125 46.375 C9.42930908 45.71838379 8.73361816 45.06176758 8.0168457 44.38525391 C3.52616525 40.10611152 -0.83996579 35.73153014 -5.0625 31.1875 C-5.54734863 30.66808838 -6.03219727 30.14867676 -6.53173828 29.61352539 C-11.17841143 24.51150825 -14.01175618 20.34069269 -14.25 13.3125 C-13.3224788 8.89021143 -11.97982117 6.00672014 -8.6875 2.875 C-5.53584854 0.8547106 -3.71283757 0.11997264 0 0 Z " fill="#000000" transform="translate(174.25,581.6875)"/>
<path d="M0 0 C4.43135421 2.21567711 6.95552361 4.48063113 9 9 C10.75709948 14.52231264 9.39250416 18.90518627 7 24 C4.95829998 26.70654922 2.61714198 28.95992358 0.125 31.25 C-0.79345703 32.12785156 -0.79345703 32.12785156 -1.73046875 33.0234375 C-2.93027544 34.16929143 -4.13539479 35.30961272 -5.34619141 36.44384766 C-8.62565054 39.529657 -11.76377581 42.74670503 -14.8671875 46.0078125 C-15.86969654 47.04696678 -16.87230168 48.08602836 -17.875 49.125 C-18.36613281 49.64964844 -18.85726562 50.17429687 -19.36328125 50.71484375 C-23.34457169 54.79954433 -27.34937664 57.64712779 -33.22265625 58.21484375 C-39.00659301 57.34295519 -42.98390302 55.35211314 -46.875 50.8125 C-48.45628727 46.85928182 -48.83874224 43.18710691 -48 39 C-45.51184982 33.88546907 -42.90215968 30.63172032 -38.5625 26.875 C-37.49896806 25.93492562 -36.43786357 24.99209954 -35.37890625 24.046875 C-34.8286377 23.55638672 -34.27836914 23.06589844 -33.71142578 22.56054688 C-30.72229693 19.83493894 -27.85934426 16.98556847 -25 14.125 C-24.46060791 13.58987793 -23.92121582 13.05475586 -23.36547852 12.50341797 C-21.02447625 10.15468719 -18.86379868 7.82908542 -16.79296875 5.23046875 C-12.4660807 -0.15221769 -6.51470196 -1.05075838 0 0 Z " fill="#000000" transform="translate(630,582)"/>
<path d="M0 0 C2.11178988 1.83439376 4.09524469 3.76912237 6.09375 5.7265625 C7.62139623 7.10144411 9.14919193 8.47616311 10.67944336 9.84814453 C15.93907486 14.59932699 20.95486535 19.53561607 25.78125 24.7265625 C26.28624023 25.26619629 26.79123047 25.80583008 27.31152344 26.36181641 C32.45238931 31.98563354 33.56702516 35.49491419 33.40625 43.03125 C32.95994996 46.88058782 31.74829107 48.93230874 29.09375 51.7265625 C24.70507572 54.65234535 21.31983581 55.35729699 16.09375 54.7265625 C10.82983734 53.20563692 7.55535835 50.34670828 4.01953125 46.2421875 C-1.46579213 40.02196133 -7.34680789 34.24360404 -13.27758789 28.45117188 C-14.66727284 27.09167164 -16.05052885 25.72560947 -17.43359375 24.359375 C-18.24562256 23.56418457 -19.05765137 22.76899414 -19.89428711 21.94970703 C-23.66615361 17.78193415 -24.35816009 14.46898488 -24.22265625 8.9765625 C-23.72391928 5.42998851 -22.24299249 3.37908101 -19.90625 0.7265625 C-13.55267735 -3.87977767 -6.70720534 -4.48063308 0 0 Z " fill="#000000" transform="translate(605.90625,163.2734375)"/>
</svg>
