<?xml version="1.0" standalone="no"?>
<!DOCTYPE svg PUBLIC "-//W3C//DTD SVG 20010904//EN"
 "http://www.w3.org/TR/2001/REC-SVG-20010904/DTD/svg10.dtd">
<svg version="1.0" xmlns="http://www.w3.org/2000/svg"
 width="1000.000000pt" height="1000.000000pt" viewBox="0 0 1000.000000 1000.000000"
 preserveAspectRatio="xMidYMid meet">

<g transform="translate(0.000000,1000.000000) scale(0.100000,-0.100000)"
fill="#000000" stroke="none">
<path d="M4750 9210 c-186 -93 -236 -123 -241 -142 -4 -12 -7 -134 -8 -269
l-1 -247 234 -121 c129 -67 248 -124 264 -127 25 -5 70 14 264 111 128 64 239
124 246 133 9 12 12 83 12 276 l0 261 -240 123 c-143 73 -250 122 -267 122
-15 -1 -134 -54 -263 -120z"/>
<path d="M4270 8950 c-821 -154 -1621 -593 -2182 -1197 -104 -112 -248 -281
-248 -291 0 -4 59 -37 131 -72 l131 -65 46 55 c88 106 418 427 537 522 499
399 985 617 1703 764 21 4 22 9 22 87 0 45 -3 112 -7 150 -7 77 4 73 -133 47z"/>
<path d="M5595 8962 c-3 -3 -5 -69 -5 -146 l0 -141 144 -28 c295 -55 591 -155
881 -297 299 -146 479 -264 746 -488 148 -124 333 -306 450 -441 l56 -64 119
62 c65 35 125 68 131 75 10 9 1 26 -45 82 -208 256 -474 498 -792 721 -448
316 -997 548 -1515 642 -153 27 -164 29 -170 23z"/>
<path d="M4810 8129 c-465 -19 -937 -160 -1395 -416 -44 -25 -98 -62 -120 -83
-59 -55 -268 -210 -328 -244 -61 -34 -294 -264 -353 -348 -43 -62 -208 -282
-254 -339 -68 -85 -202 -348 -283 -554 -89 -228 -171 -556 -197 -790 -24 -220
-12 -700 22 -895 81 -465 293 -962 560 -1312 85 -112 249 -306 297 -353 48
-46 35 -49 168 47 43 31 86 69 95 85 l17 28 -132 135 c-192 196 -294 342 -442
632 -129 253 -220 543 -272 873 -22 141 -25 609 -5 755 49 346 135 626 287
935 181 370 395 627 774 934 185 150 275 207 491 312 162 79 148 73 275 119
187 69 386 122 585 156 150 25 552 31 721 9 148 -18 338 -56 432 -85 33 -10
63 -17 66 -15 17 11 134 253 129 266 -8 19 -186 68 -378 103 -232 42 -478 57
-760 45z"/>
<path d="M6230 7940 c-186 -93 -236 -123 -241 -142 -4 -12 -7 -134 -8 -269
l-1 -247 234 -121 c129 -67 248 -124 265 -127 25 -5 57 7 181 70 82 42 150 73
150 69 0 -4 4 -3 8 3 4 6 44 30 88 52 45 23 84 48 88 57 3 9 6 132 6 273 l0
257 -240 123 c-143 73 -250 122 -267 122 -15 -1 -134 -54 -263 -120z"/>
<path d="M4939 7441 c-15 -5 -91 -47 -170 -93 -259 -153 -1704 -982 -1817
-1043 -31 -17 -62 -43 -75 -64 -21 -35 -22 -46 -25 -351 -2 -173 -1 -718 3
-1210 l7 -895 42 -41 c25 -24 163 -110 351 -219 171 -98 569 -327 885 -510
852 -492 805 -467 866 -462 38 2 72 15 130 48 44 25 459 265 924 533 465 268
889 513 944 544 79 46 102 65 120 97 l21 40 -3 1195 c-2 1193 -2 1194 -23
1225 -29 41 -66 67 -259 175 -224 126 -1104 632 -1435 825 -147 86 -290 167
-317 181 -54 27 -128 38 -169 25z m152 -586 c193 -331 601 -1039 624 -1085
l25 -50 -744 0 -745 0 18 33 c11 17 151 262 313 542 162 281 321 556 353 613
32 57 61 100 66 95 4 -4 44 -71 90 -148z m-511 28 c-1 -20 -593 -1048 -622
-1079 l-19 -22 -319 182 c-176 99 -318 186 -317 191 2 6 274 165 604 355 330
190 611 353 624 362 25 18 49 23 49 11z m987 -74 c150 -89 836 -481 999 -572
93 -52 133 -82 123 -91 -11 -10 -523 -303 -581 -332 l-67 -34 -17 31 c-8 17
-139 243 -289 503 -291 503 -331 576 -316 576 6 0 72 -37 148 -81z m-2085
-1097 c244 -141 315 -187 311 -199 -11 -28 -597 -1038 -620 -1069 l-22 -29 -1
743 c0 409 4 742 8 740 4 -1 150 -85 324 -186z m3368 -559 c0 -650 -2 -745
-14 -733 -8 8 -53 80 -99 160 -358 619 -509 881 -521 912 l-15 36 177 105
c247 146 460 267 469 267 2 0 3 -336 3 -747z m-1110 273 c0 -3 -48 -87 -107
-188 -59 -101 -223 -385 -365 -633 -142 -247 -263 -450 -269 -450 -7 0 -51 68
-99 150 -279 481 -582 1008 -609 1063 l-31 62 740 0 c407 0 740 -2 740 -4z
m-1544 -473 c103 -181 256 -446 340 -589 160 -274 178 -308 194 -349 l10 -25
-745 0 -744 0 18 33 c11 17 151 262 313 542 162 281 321 556 352 613 32 56 62
102 66 102 5 0 93 -147 196 -327z m1895 172 c193 -331 601 -1039 624 -1085
l25 -50 -745 0 c-410 0 -745 2 -745 4 0 3 539 939 717 1244 14 24 29 40 33 35
5 -4 45 -71 91 -148z m-1241 -1795 l0 -370 -32 13 c-18 8 -258 144 -533 304
-275 159 -541 313 -591 341 -51 29 -97 59 -104 67 -11 13 61 15 624 15 l636 0
0 -370z m1575 361 c-6 -5 -80 -49 -165 -99 -85 -49 -299 -172 -475 -274 -176
-102 -393 -226 -482 -276 l-163 -91 0 375 0 374 647 0 c391 0 643 -4 638 -9z"/>
<path d="M8010 7330 c-186 -93 -236 -123 -241 -142 -4 -12 -7 -134 -8 -269
l-1 -247 234 -121 c129 -67 248 -124 264 -127 25 -5 70 14 264 111 128 64 239
124 246 133 9 12 12 83 12 276 l0 261 -240 123 c-143 73 -250 122 -267 122
-15 -1 -134 -54 -263 -120z"/>
<path d="M1390 7320 c-186 -93 -236 -123 -241 -142 -4 -12 -7 -134 -8 -269
l-1 -247 234 -121 c129 -67 248 -124 264 -127 25 -5 70 14 264 111 128 64 239
124 246 133 9 12 12 83 12 276 l0 261 -240 123 c-143 73 -250 122 -267 122
-15 -1 -134 -54 -263 -120z"/>
<path d="M7114 7217 c-28 -23 -83 -64 -122 -90 l-72 -48 86 -87 c222 -225 395
-463 528 -729 133 -266 197 -465 256 -803 44 -247 55 -415 41 -626 -31 -460
-143 -834 -364 -1221 -48 -83 -87 -154 -87 -158 0 -11 -82 -128 -151 -216 -91
-114 -362 -377 -527 -511 -74 -59 -139 -108 -145 -108 -6 0 -70 -34 -143 -75
-235 -133 -454 -223 -699 -285 -272 -69 -438 -89 -732 -90 -292 0 -591 46
-851 131 l-64 21 -40 -38 c-47 -45 -161 -216 -150 -225 15 -13 144 -50 322
-93 373 -91 565 -113 890 -102 304 11 351 15 500 47 320 68 500 128 777 261
97 46 329 177 377 212 268 197 376 290 567 492 143 151 418 531 506 699 131
252 229 584 295 1005 19 125 22 183 22 430 0 300 -10 404 -65 675 -65 318
-292 843 -443 1024 -61 73 -234 308 -251 342 -16 29 -190 209 -202 208 -4 0
-31 -19 -59 -42z"/>
<path d="M8570 6474 c-63 -34 -119 -65 -124 -67 -5 -2 -2 -23 8 -48 45 -109
120 -347 156 -494 85 -346 105 -545 97 -945 -8 -342 -28 -508 -99 -799 -26
-109 -84 -308 -102 -351 -5 -12 24 -31 123 -80 72 -35 133 -62 136 -58 9 9 74
205 106 320 35 127 81 348 106 513 15 102 18 185 18 555 0 479 -7 555 -76 856
-56 246 -197 665 -223 663 -6 -1 -63 -30 -126 -65z"/>
<path d="M1260 6458 c-117 -317 -196 -629 -242 -953 -9 -63 -13 -223 -13 -525
0 -403 2 -446 23 -580 30 -191 64 -345 112 -510 40 -138 133 -397 149 -413 9
-9 261 112 261 126 0 5 -21 65 -46 135 -84 231 -152 514 -191 792 -22 160 -26
790 -5 940 38 275 91 508 169 735 24 71 48 136 53 144 7 13 -17 28 -122 78
-71 35 -131 63 -133 63 -2 0 -8 -15 -15 -32z"/>
<path d="M8110 3600 c-186 -93 -236 -123 -241 -142 -4 -12 -7 -134 -8 -269
l-1 -247 234 -121 c129 -67 248 -124 264 -127 25 -5 70 14 264 111 128 64 239
124 246 133 9 12 12 83 12 276 l0 261 -240 123 c-143 73 -250 122 -267 122
-15 -1 -134 -54 -263 -120z"/>
<path d="M1430 3430 c-186 -93 -236 -123 -241 -142 -4 -12 -7 -134 -8 -269
l-1 -247 234 -121 c129 -67 248 -124 264 -127 25 -5 70 14 264 111 128 64 239
124 246 133 9 12 12 83 12 276 l0 261 -240 123 c-143 73 -250 122 -267 122
-15 -1 -134 -54 -263 -120z"/>
<path d="M3170 2890 c-186 -93 -236 -123 -241 -142 -4 -12 -7 -134 -8 -269
l-1 -247 234 -121 c129 -67 248 -124 264 -127 25 -5 70 14 264 111 128 64 239
124 246 133 9 12 12 83 12 276 l0 261 -240 123 c-143 73 -250 122 -267 122
-15 -1 -134 -54 -263 -120z"/>
<path d="M7884 2667 c-335 -420 -745 -752 -1229 -995 -285 -142 -588 -246
-901 -308 -76 -15 -142 -32 -146 -38 -11 -15 -10 -296 0 -296 5 0 60 9 123 21
365 65 667 167 1009 340 493 248 854 514 1170 862 113 125 319 375 320 388 0
5 -253 130 -262 129 -1 0 -40 -47 -84 -103z"/>
<path d="M2005 2573 c-71 -36 -132 -67 -134 -69 -19 -17 416 -465 589 -606
458 -372 984 -640 1537 -782 136 -34 412 -90 418 -84 1 2 5 67 9 145 l7 142
-23 5 c-13 3 -52 10 -88 16 -380 64 -829 232 -1193 447 -312 184 -683 495
-915 766 -41 48 -75 87 -76 86 0 0 -59 -30 -131 -66z"/>
<path d="M4750 1570 c-186 -93 -236 -123 -241 -142 -4 -12 -7 -134 -8 -269
l-1 -247 234 -121 c129 -67 248 -124 264 -127 25 -5 70 14 264 111 128 64 239
124 246 133 9 12 12 83 12 276 l0 261 -240 123 c-143 73 -250 122 -267 122
-15 -1 -134 -54 -263 -120z"/>
</g>
</svg>
